<svg xmlns="http://www.w3.org/2000/svg" width="60" height="60" fill="none"><path fill="#fff" d="M27.65 16.045a1.5 1.5 0 0 0-2.304 1.92l2.305-1.92Zm9.16 13.334 1.153.96a1.5 1.5 0 0 0 0-1.92l-1.153.96ZM25.346 40.794a1.5 1.5 0 0 0 2.305 1.92l-2.305-1.92Zm0-22.829L35.658 30.34l2.305-1.92L27.65 16.044l-2.305 1.92ZM35.658 28.42 25.346 40.794l2.305 1.92L37.963 30.34l-2.305-1.92ZM30 3.5c14.636 0 26.5 11.864 26.5 26.5h3C59.5 13.708 46.292.5 30 .5v3ZM56.5 30c0 14.636-11.864 26.5-26.5 26.5v3c16.292 0 29.5-13.208 29.5-29.5h-3ZM30 56.5C15.364 56.5 3.5 44.636 3.5 30h-3C.5 46.292 13.708 59.5 30 59.5v-3ZM3.5 30C3.5 15.364 15.364 3.5 30 3.5v-3C13.708.5.5 13.708.5 30h3Z"/></svg>