<svg xmlns="http://www.w3.org/2000/svg" width="42" height="42" fill="none"><path fill="#000" d="M19.267 11.078a1 1 0 1 0-1.537 1.28l1.537-1.28Zm6.598 9.479.768.64a1 1 0 0 0 0-1.28l-.768.64Zm-8.134 8.198a1 1 0 0 0 1.536 1.28l-1.537-1.28Zm0-16.397 7.365 8.839 1.537-1.28-7.366-8.84-1.537 1.281Zm7.365 7.558-7.366 8.84 1.537 1.28 7.366-8.84-1.537-1.28ZM21 2c10.493 0 19 8.507 19 19h2C42 9.402 32.598 0 21 0v2Zm19 19c0 10.493-8.507 19-19 19v2c11.598 0 21-9.402 21-21h-2ZM21 40C10.507 40 2 31.493 2 21H0c0 11.598 9.402 21 21 21v-2ZM2 21C2 10.507 10.507 2 21 2V0C9.402 0 0 9.402 0 21h2Z"/></svg>