<svg xmlns="http://www.w3.org/2000/svg" width="120" height="24" fill="none"><path fill="#F2C94C" d="m21.284 8.276-5.951-.865-2.66-5.393a.753.753 0 0 0-1.345 0l-2.66 5.393-5.952.865a.749.749 0 0 0-.414 1.28l4.305 4.197L5.59 19.68a.749.749 0 0 0 1.087.79L12 17.672l5.323 2.798a.749.749 0 0 0 1.087-.79l-1.017-5.927 4.305-4.197a.749.749 0 0 0 .218-.43.747.747 0 0 0-.632-.85ZM45.284 8.276l-5.951-.865-2.66-5.393a.753.753 0 0 0-1.345 0l-2.66 5.393-5.952.865a.749.749 0 0 0-.414 1.28l4.305 4.197-1.017 5.927a.749.749 0 0 0 1.087.79L36 17.672l5.323 2.798a.749.749 0 0 0 1.088-.79l-1.018-5.927 4.306-4.197a.749.749 0 0 0 .217-.43.747.747 0 0 0-.632-.85ZM69.284 8.276l-5.951-.865-2.66-5.393a.753.753 0 0 0-1.345 0l-2.66 5.393-5.952.865a.749.749 0 0 0-.414 1.28l4.305 4.197-1.017 5.927a.749.749 0 0 0 1.087.79L60 17.672l5.323 2.798a.749.749 0 0 0 1.088-.79l-1.018-5.927 4.305-4.197a.749.749 0 0 0 .218-.43.747.747 0 0 0-.632-.85ZM93.284 8.276l-5.951-.865-2.66-5.393a.753.753 0 0 0-1.345 0l-2.66 5.393-5.952.865a.749.749 0 0 0-.414 1.28l4.305 4.197-1.017 5.927a.749.749 0 0 0 1.087.79L84 17.672l5.323 2.798a.749.749 0 0 0 1.088-.79l-1.018-5.927 4.305-4.197a.749.749 0 0 0 .218-.43.747.747 0 0 0-.632-.85ZM117.284 8.276l-5.951-.865-2.66-5.393a.75.75 0 0 0-1.346 0l-2.66 5.393-5.95.865a.749.749 0 0 0-.415 1.28l4.305 4.197-1.017 5.927a.744.744 0 0 0 .298.734.747.747 0 0 0 .789.056L108 17.672l5.323 2.798a.75.75 0 0 0 1.087-.79l-1.017-5.927 4.305-4.197a.741.741 0 0 0 .218-.43.746.746 0 0 0-.632-.85Z"/></svg>